<svg xmlns="http://www.w3.org/2000/svg" xmlns:xlink="http://www.w3.org/1999/xlink" style="margin: auto;background: rgb(222, 239, 255);display: block;z-index: 1;position: relative;shape-rendering: auto;" width="1659" height="760" preserveAspectRatio="xMidYMid" viewBox="0 0 1659 760">
    <g transform="translate(829.5,380) scale(1,1) translate(-829.5,-380)"><g transform="translate(-100 132.3513132109752) rotate(0)">
        <animateTransform attributeName="transform" type="translate" keyTimes="0;1" values="-100 132.3513132109752;1659 132.3513132109752" dur="1000s" repeatCount="indefinite" begin="-607.5435431750477s"></animateTransform>
        <path d="M84.717,33.597c0.791-2.503,1.186-5.138,1.186-7.773C85.903,11.594,74.308,0,60.079,0 c-9.881,0-18.445,5.534-22.793,13.702c-1.581-0.527-3.426-0.791-5.138-0.791c-9.486,0-17.128,7.642-17.128,17.128 c0,1.186,0.132,2.372,0.395,3.426C6.719,34.783,0,42.424,0,51.515C0,61.66,8.169,69.829,18.314,69.829h63.373 C91.831,69.829,100,61.66,100,51.515C99.868,42.556,93.281,35.046,84.717,33.597z" fill="#43b7f6" transform="scale(0.5477500000000001)"></path>
    </g><g transform="translate(-100 282.30515408905643) rotate(0)">
        <animateTransform attributeName="transform" type="translate" keyTimes="0;1" values="-100 282.30515408905643;1659 282.30515408905643" dur="1000s" repeatCount="indefinite" begin="-647.2434134917322s"></animateTransform>
        <path d="M84.717,33.597c0.791-2.503,1.186-5.138,1.186-7.773C85.903,11.594,74.308,0,60.079,0 c-9.881,0-18.445,5.534-22.793,13.702c-1.581-0.527-3.426-0.791-5.138-0.791c-9.486,0-17.128,7.642-17.128,17.128 c0,1.186,0.132,2.372,0.395,3.426C6.719,34.783,0,42.424,0,51.515C0,61.66,8.169,69.829,18.314,69.829h63.373 C91.831,69.829,100,61.66,100,51.515C99.868,42.556,93.281,35.046,84.717,33.597z" fill="#43b7f6" transform="scale(0.5477500000000001)"></path>
    </g><g transform="translate(-100 649.3455039044812) rotate(0)">
        <animateTransform attributeName="transform" type="translate" keyTimes="0;1" values="-100 649.3455039044812;1659 649.3455039044812" dur="1000s" repeatCount="indefinite" begin="-466.0497679704907s"></animateTransform>
        <path d="M84.717,33.597c0.791-2.503,1.186-5.138,1.186-7.773C85.903,11.594,74.308,0,60.079,0 c-9.881,0-18.445,5.534-22.793,13.702c-1.581-0.527-3.426-0.791-5.138-0.791c-9.486,0-17.128,7.642-17.128,17.128 c0,1.186,0.132,2.372,0.395,3.426C6.719,34.783,0,42.424,0,51.515C0,61.66,8.169,69.829,18.314,69.829h63.373 C91.831,69.829,100,61.66,100,51.515C99.868,42.556,93.281,35.046,84.717,33.597z" fill="#43b7f6" transform="scale(0.5477500000000001)"></path>
    </g><g transform="translate(-100 389.0507726754673) rotate(0)">
        <animateTransform attributeName="transform" type="translate" keyTimes="0;1" values="-100 389.0507726754673;1659 389.0507726754673" dur="1000s" repeatCount="indefinite" begin="-667.5097687454845s"></animateTransform>
        <path d="M84.717,33.597c0.791-2.503,1.186-5.138,1.186-7.773C85.903,11.594,74.308,0,60.079,0 c-9.881,0-18.445,5.534-22.793,13.702c-1.581-0.527-3.426-0.791-5.138-0.791c-9.486,0-17.128,7.642-17.128,17.128 c0,1.186,0.132,2.372,0.395,3.426C6.719,34.783,0,42.424,0,51.515C0,61.66,8.169,69.829,18.314,69.829h63.373 C91.831,69.829,100,61.66,100,51.515C99.868,42.556,93.281,35.046,84.717,33.597z" fill="#43b7f6" transform="scale(0.5477500000000001)"></path>
    </g><g transform="translate(-100 406.60894478669377) rotate(0)">
        <animateTransform attributeName="transform" type="translate" keyTimes="0;1" values="-100 406.60894478669377;1659 406.60894478669377" dur="1000s" repeatCount="indefinite" begin="-718.3179642897941s"></animateTransform>
        <path d="M84.717,33.597c0.791-2.503,1.186-5.138,1.186-7.773C85.903,11.594,74.308,0,60.079,0 c-9.881,0-18.445,5.534-22.793,13.702c-1.581-0.527-3.426-0.791-5.138-0.791c-9.486,0-17.128,7.642-17.128,17.128 c0,1.186,0.132,2.372,0.395,3.426C6.719,34.783,0,42.424,0,51.515C0,61.66,8.169,69.829,18.314,69.829h63.373 C91.831,69.829,100,61.66,100,51.515C99.868,42.556,93.281,35.046,84.717,33.597z" fill="#43b7f6" transform="scale(0.5477500000000001)"></path>
    </g><g transform="translate(-100 468.3790550410102) rotate(0)">
        <animateTransform attributeName="transform" type="translate" keyTimes="0;1" values="-100 468.3790550410102;1659 468.3790550410102" dur="1000s" repeatCount="indefinite" begin="-454.59643369771106s"></animateTransform>
        <path d="M84.717,33.597c0.791-2.503,1.186-5.138,1.186-7.773C85.903,11.594,74.308,0,60.079,0 c-9.881,0-18.445,5.534-22.793,13.702c-1.581-0.527-3.426-0.791-5.138-0.791c-9.486,0-17.128,7.642-17.128,17.128 c0,1.186,0.132,2.372,0.395,3.426C6.719,34.783,0,42.424,0,51.515C0,61.66,8.169,69.829,18.314,69.829h63.373 C91.831,69.829,100,61.66,100,51.515C99.868,42.556,93.281,35.046,84.717,33.597z" fill="#43b7f6" transform="scale(0.5477500000000001)"></path>
    </g><g transform="translate(-100 367.58559895960036) rotate(0)">
        <animateTransform attributeName="transform" type="translate" keyTimes="0;1" values="-100 367.58559895960036;1659 367.58559895960036" dur="1000s" repeatCount="indefinite" begin="-667.501547546657s"></animateTransform>
        <path d="M84.717,33.597c0.791-2.503,1.186-5.138,1.186-7.773C85.903,11.594,74.308,0,60.079,0 c-9.881,0-18.445,5.534-22.793,13.702c-1.581-0.527-3.426-0.791-5.138-0.791c-9.486,0-17.128,7.642-17.128,17.128 c0,1.186,0.132,2.372,0.395,3.426C6.719,34.783,0,42.424,0,51.515C0,61.66,8.169,69.829,18.314,69.829h63.373 C91.831,69.829,100,61.66,100,51.515C99.868,42.556,93.281,35.046,84.717,33.597z" fill="#43b7f6" transform="scale(0.5477500000000001)"></path>
    </g><g transform="translate(-100 632.2007631900287) rotate(0)">
        <animateTransform attributeName="transform" type="translate" keyTimes="0;1" values="-100 632.2007631900287;1659 632.2007631900287" dur="1000s" repeatCount="indefinite" begin="-670.9471224654588s"></animateTransform>
        <path d="M84.717,33.597c0.791-2.503,1.186-5.138,1.186-7.773C85.903,11.594,74.308,0,60.079,0 c-9.881,0-18.445,5.534-22.793,13.702c-1.581-0.527-3.426-0.791-5.138-0.791c-9.486,0-17.128,7.642-17.128,17.128 c0,1.186,0.132,2.372,0.395,3.426C6.719,34.783,0,42.424,0,51.515C0,61.66,8.169,69.829,18.314,69.829h63.373 C91.831,69.829,100,61.66,100,51.515C99.868,42.556,93.281,35.046,84.717,33.597z" fill="#43b7f6" transform="scale(0.5477500000000001)"></path>
    </g><g transform="translate(-100 156.4153369877962) rotate(0)">
        <animateTransform attributeName="transform" type="translate" keyTimes="0;1" values="-100 156.4153369877962;1659 156.4153369877962" dur="1000s" repeatCount="indefinite" begin="-755.8084883072019s"></animateTransform>
        <path d="M84.717,33.597c0.791-2.503,1.186-5.138,1.186-7.773C85.903,11.594,74.308,0,60.079,0 c-9.881,0-18.445,5.534-22.793,13.702c-1.581-0.527-3.426-0.791-5.138-0.791c-9.486,0-17.128,7.642-17.128,17.128 c0,1.186,0.132,2.372,0.395,3.426C6.719,34.783,0,42.424,0,51.515C0,61.66,8.169,69.829,18.314,69.829h63.373 C91.831,69.829,100,61.66,100,51.515C99.868,42.556,93.281,35.046,84.717,33.597z" fill="#43b7f6" transform="scale(0.5477500000000001)"></path>
    </g><g transform="translate(-100 2.52584285865475) rotate(0)">
        <animateTransform attributeName="transform" type="translate" keyTimes="0;1" values="-100 2.52584285865475;1659 2.52584285865475" dur="1000s" repeatCount="indefinite" begin="-609.3588890171849s"></animateTransform>
        <path d="M84.717,33.597c0.791-2.503,1.186-5.138,1.186-7.773C85.903,11.594,74.308,0,60.079,0 c-9.881,0-18.445,5.534-22.793,13.702c-1.581-0.527-3.426-0.791-5.138-0.791c-9.486,0-17.128,7.642-17.128,17.128 c0,1.186,0.132,2.372,0.395,3.426C6.719,34.783,0,42.424,0,51.515C0,61.66,8.169,69.829,18.314,69.829h63.373 C91.831,69.829,100,61.66,100,51.515C99.868,42.556,93.281,35.046,84.717,33.597z" fill="#43b7f6" transform="scale(0.5477500000000001)"></path>
    </g><g transform="translate(-100 555.8040507284937) rotate(0)">
        <animateTransform attributeName="transform" type="translate" keyTimes="0;1" values="-100 555.8040507284937;1659 555.8040507284937" dur="1000s" repeatCount="indefinite" begin="-353.7546763953463s"></animateTransform>
        <path d="M84.717,33.597c0.791-2.503,1.186-5.138,1.186-7.773C85.903,11.594,74.308,0,60.079,0 c-9.881,0-18.445,5.534-22.793,13.702c-1.581-0.527-3.426-0.791-5.138-0.791c-9.486,0-17.128,7.642-17.128,17.128 c0,1.186,0.132,2.372,0.395,3.426C6.719,34.783,0,42.424,0,51.515C0,61.66,8.169,69.829,18.314,69.829h63.373 C91.831,69.829,100,61.66,100,51.515C99.868,42.556,93.281,35.046,84.717,33.597z" fill="#43b7f6" transform="scale(0.5477500000000001)"></path>
    </g><g transform="translate(-100 716.5763219078045) rotate(0)">
        <animateTransform attributeName="transform" type="translate" keyTimes="0;1" values="-100 716.5763219078045;1659 716.5763219078045" dur="500s" repeatCount="indefinite" begin="-908.5597936786121s"></animateTransform>
        <path d="M84.717,33.597c0.791-2.503,1.186-5.138,1.186-7.773C85.903,11.594,74.308,0,60.079,0 c-9.881,0-18.445,5.534-22.793,13.702c-1.581-0.527-3.426-0.791-5.138-0.791c-9.486,0-17.128,7.642-17.128,17.128 c0,1.186,0.132,2.372,0.395,3.426C6.719,34.783,0,42.424,0,51.515C0,61.66,8.169,69.829,18.314,69.829h63.373 C91.831,69.829,100,61.66,100,51.515C99.868,42.556,93.281,35.046,84.717,33.597z" fill="#ffffff" transform="scale(0.5985)"></path>
    </g><g transform="translate(-100 118.67036488910028) rotate(0)">
        <animateTransform attributeName="transform" type="translate" keyTimes="0;1" values="-100 118.67036488910028;1659 118.67036488910028" dur="500s" repeatCount="indefinite" begin="-637.7172047664587s"></animateTransform>
        <path d="M84.717,33.597c0.791-2.503,1.186-5.138,1.186-7.773C85.903,11.594,74.308,0,60.079,0 c-9.881,0-18.445,5.534-22.793,13.702c-1.581-0.527-3.426-0.791-5.138-0.791c-9.486,0-17.128,7.642-17.128,17.128 c0,1.186,0.132,2.372,0.395,3.426C6.719,34.783,0,42.424,0,51.515C0,61.66,8.169,69.829,18.314,69.829h63.373 C91.831,69.829,100,61.66,100,51.515C99.868,42.556,93.281,35.046,84.717,33.597z" fill="#ffffff" transform="scale(0.5985)"></path>
    </g><g transform="translate(-100 219.75359507483785) rotate(0)">
        <animateTransform attributeName="transform" type="translate" keyTimes="0;1" values="-100 219.75359507483785;1659 219.75359507483785" dur="500s" repeatCount="indefinite" begin="-408.4802992247261s"></animateTransform>
        <path d="M84.717,33.597c0.791-2.503,1.186-5.138,1.186-7.773C85.903,11.594,74.308,0,60.079,0 c-9.881,0-18.445,5.534-22.793,13.702c-1.581-0.527-3.426-0.791-5.138-0.791c-9.486,0-17.128,7.642-17.128,17.128 c0,1.186,0.132,2.372,0.395,3.426C6.719,34.783,0,42.424,0,51.515C0,61.66,8.169,69.829,18.314,69.829h63.373 C91.831,69.829,100,61.66,100,51.515C99.868,42.556,93.281,35.046,84.717,33.597z" fill="#ffffff" transform="scale(0.5985)"></path>
    </g><g transform="translate(-100 275.7394124396921) rotate(0)">
        <animateTransform attributeName="transform" type="translate" keyTimes="0;1" values="-100 275.7394124396921;1659 275.7394124396921" dur="500s" repeatCount="indefinite" begin="-631.4705927951236s"></animateTransform>
        <path d="M84.717,33.597c0.791-2.503,1.186-5.138,1.186-7.773C85.903,11.594,74.308,0,60.079,0 c-9.881,0-18.445,5.534-22.793,13.702c-1.581-0.527-3.426-0.791-5.138-0.791c-9.486,0-17.128,7.642-17.128,17.128 c0,1.186,0.132,2.372,0.395,3.426C6.719,34.783,0,42.424,0,51.515C0,61.66,8.169,69.829,18.314,69.829h63.373 C91.831,69.829,100,61.66,100,51.515C99.868,42.556,93.281,35.046,84.717,33.597z" fill="#ffffff" transform="scale(0.5985)"></path>
    </g><g transform="translate(-100 481.8101913630516) rotate(0)">
        <animateTransform attributeName="transform" type="translate" keyTimes="0;1" values="-100 481.8101913630516;1659 481.8101913630516" dur="500s" repeatCount="indefinite" begin="-595.8158779713541s"></animateTransform>
        <path d="M84.717,33.597c0.791-2.503,1.186-5.138,1.186-7.773C85.903,11.594,74.308,0,60.079,0 c-9.881,0-18.445,5.534-22.793,13.702c-1.581-0.527-3.426-0.791-5.138-0.791c-9.486,0-17.128,7.642-17.128,17.128 c0,1.186,0.132,2.372,0.395,3.426C6.719,34.783,0,42.424,0,51.515C0,61.66,8.169,69.829,18.314,69.829h63.373 C91.831,69.829,100,61.66,100,51.515C99.868,42.556,93.281,35.046,84.717,33.597z" fill="#ffffff" transform="scale(0.5985)"></path>
    </g><g transform="translate(-100 553.0363228978362) rotate(0)">
        <animateTransform attributeName="transform" type="translate" keyTimes="0;1" values="-100 553.0363228978362;1659 553.0363228978362" dur="500s" repeatCount="indefinite" begin="-354.59485716115347s"></animateTransform>
        <path d="M84.717,33.597c0.791-2.503,1.186-5.138,1.186-7.773C85.903,11.594,74.308,0,60.079,0 c-9.881,0-18.445,5.534-22.793,13.702c-1.581-0.527-3.426-0.791-5.138-0.791c-9.486,0-17.128,7.642-17.128,17.128 c0,1.186,0.132,2.372,0.395,3.426C6.719,34.783,0,42.424,0,51.515C0,61.66,8.169,69.829,18.314,69.829h63.373 C91.831,69.829,100,61.66,100,51.515C99.868,42.556,93.281,35.046,84.717,33.597z" fill="#ffffff" transform="scale(0.5985)"></path>
    </g><g transform="translate(-100 259.802660447719) rotate(0)">
        <animateTransform attributeName="transform" type="translate" keyTimes="0;1" values="-100 259.802660447719;1659 259.802660447719" dur="500s" repeatCount="indefinite" begin="-576.3542444073502s"></animateTransform>
        <path d="M84.717,33.597c0.791-2.503,1.186-5.138,1.186-7.773C85.903,11.594,74.308,0,60.079,0 c-9.881,0-18.445,5.534-22.793,13.702c-1.581-0.527-3.426-0.791-5.138-0.791c-9.486,0-17.128,7.642-17.128,17.128 c0,1.186,0.132,2.372,0.395,3.426C6.719,34.783,0,42.424,0,51.515C0,61.66,8.169,69.829,18.314,69.829h63.373 C91.831,69.829,100,61.66,100,51.515C99.868,42.556,93.281,35.046,84.717,33.597z" fill="#ffffff" transform="scale(0.5985)"></path>
    </g><g transform="translate(-100 132.7461130112404) rotate(0)">
        <animateTransform attributeName="transform" type="translate" keyTimes="0;1" values="-100 132.7461130112404;1659 132.7461130112404" dur="500s" repeatCount="indefinite" begin="-746.3578636045464s"></animateTransform>
        <path d="M84.717,33.597c0.791-2.503,1.186-5.138,1.186-7.773C85.903,11.594,74.308,0,60.079,0 c-9.881,0-18.445,5.534-22.793,13.702c-1.581-0.527-3.426-0.791-5.138-0.791c-9.486,0-17.128,7.642-17.128,17.128 c0,1.186,0.132,2.372,0.395,3.426C6.719,34.783,0,42.424,0,51.515C0,61.66,8.169,69.829,18.314,69.829h63.373 C91.831,69.829,100,61.66,100,51.515C99.868,42.556,93.281,35.046,84.717,33.597z" fill="#ffffff" transform="scale(0.5985)"></path>
    </g><g transform="translate(-100 195.16484905186047) rotate(0)">
        <animateTransform attributeName="transform" type="translate" keyTimes="0;1" values="-100 195.16484905186047;1659 195.16484905186047" dur="500s" repeatCount="indefinite" begin="-836.4568822204119s"></animateTransform>
        <path d="M84.717,33.597c0.791-2.503,1.186-5.138,1.186-7.773C85.903,11.594,74.308,0,60.079,0 c-9.881,0-18.445,5.534-22.793,13.702c-1.581-0.527-3.426-0.791-5.138-0.791c-9.486,0-17.128,7.642-17.128,17.128 c0,1.186,0.132,2.372,0.395,3.426C6.719,34.783,0,42.424,0,51.515C0,61.66,8.169,69.829,18.314,69.829h63.373 C91.831,69.829,100,61.66,100,51.515C99.868,42.556,93.281,35.046,84.717,33.597z" fill="#ffffff" transform="scale(0.5985)"></path>
    </g><g transform="translate(-100 320.59767084998214) rotate(0)">
        <animateTransform attributeName="transform" type="translate" keyTimes="0;1" values="-100 320.59767084998214;1659 320.59767084998214" dur="500s" repeatCount="indefinite" begin="-250.19001402162488s"></animateTransform>
        <path d="M84.717,33.597c0.791-2.503,1.186-5.138,1.186-7.773C85.903,11.594,74.308,0,60.079,0 c-9.881,0-18.445,5.534-22.793,13.702c-1.581-0.527-3.426-0.791-5.138-0.791c-9.486,0-17.128,7.642-17.128,17.128 c0,1.186,0.132,2.372,0.395,3.426C6.719,34.783,0,42.424,0,51.515C0,61.66,8.169,69.829,18.314,69.829h63.373 C91.831,69.829,100,61.66,100,51.515C99.868,42.556,93.281,35.046,84.717,33.597z" fill="#ffffff" transform="scale(0.5985)"></path>
    </g><g transform="translate(-100 540.7060235316808) rotate(0)">
        <animateTransform attributeName="transform" type="translate" keyTimes="0;1" values="-100 540.7060235316808;1659 540.7060235316808" dur="500s" repeatCount="indefinite" begin="-996.478096634551s"></animateTransform>
        <path d="M84.717,33.597c0.791-2.503,1.186-5.138,1.186-7.773C85.903,11.594,74.308,0,60.079,0 c-9.881,0-18.445,5.534-22.793,13.702c-1.581-0.527-3.426-0.791-5.138-0.791c-9.486,0-17.128,7.642-17.128,17.128 c0,1.186,0.132,2.372,0.395,3.426C6.719,34.783,0,42.424,0,51.515C0,61.66,8.169,69.829,18.314,69.829h63.373 C91.831,69.829,100,61.66,100,51.515C99.868,42.556,93.281,35.046,84.717,33.597z" fill="#ffffff" transform="scale(0.5985)"></path>
    </g><g transform="translate(-100 23.08527618054925) rotate(0)">
        <animateTransform attributeName="transform" type="translate" keyTimes="0;1" values="-100 23.08527618054925;1659 23.08527618054925" dur="333.3333333333333s" repeatCount="indefinite" begin="-793.6018358060106s"></animateTransform>
        <path d="M84.717,33.597c0.791-2.503,1.186-5.138,1.186-7.773C85.903,11.594,74.308,0,60.079,0 c-9.881,0-18.445,5.534-22.793,13.702c-1.581-0.527-3.426-0.791-5.138-0.791c-9.486,0-17.128,7.642-17.128,17.128 c0,1.186,0.132,2.372,0.395,3.426C6.719,34.783,0,42.424,0,51.515C0,61.66,8.169,69.829,18.314,69.829h63.373 C91.831,69.829,100,61.66,100,51.515C99.868,42.556,93.281,35.046,84.717,33.597z" fill="#3b86ce" transform="scale(0.6492500000000001)"></path>
    </g><g transform="translate(-100 91.27146935128826) rotate(0)">
        <animateTransform attributeName="transform" type="translate" keyTimes="0;1" values="-100 91.27146935128826;1659 91.27146935128826" dur="333.3333333333333s" repeatCount="indefinite" begin="-936.9663672857322s"></animateTransform>
        <path d="M84.717,33.597c0.791-2.503,1.186-5.138,1.186-7.773C85.903,11.594,74.308,0,60.079,0 c-9.881,0-18.445,5.534-22.793,13.702c-1.581-0.527-3.426-0.791-5.138-0.791c-9.486,0-17.128,7.642-17.128,17.128 c0,1.186,0.132,2.372,0.395,3.426C6.719,34.783,0,42.424,0,51.515C0,61.66,8.169,69.829,18.314,69.829h63.373 C91.831,69.829,100,61.66,100,51.515C99.868,42.556,93.281,35.046,84.717,33.597z" fill="#3b86ce" transform="scale(0.6492500000000001)"></path>
    </g><g transform="translate(-100 601.2222557848819) rotate(0)">
        <animateTransform attributeName="transform" type="translate" keyTimes="0;1" values="-100 601.2222557848819;1659 601.2222557848819" dur="333.3333333333333s" repeatCount="indefinite" begin="-5.017222864274862s"></animateTransform>
        <path d="M84.717,33.597c0.791-2.503,1.186-5.138,1.186-7.773C85.903,11.594,74.308,0,60.079,0 c-9.881,0-18.445,5.534-22.793,13.702c-1.581-0.527-3.426-0.791-5.138-0.791c-9.486,0-17.128,7.642-17.128,17.128 c0,1.186,0.132,2.372,0.395,3.426C6.719,34.783,0,42.424,0,51.515C0,61.66,8.169,69.829,18.314,69.829h63.373 C91.831,69.829,100,61.66,100,51.515C99.868,42.556,93.281,35.046,84.717,33.597z" fill="#3b86ce" transform="scale(0.6492500000000001)"></path>
    </g><g transform="translate(-100 666.5336602184143) rotate(0)">
        <animateTransform attributeName="transform" type="translate" keyTimes="0;1" values="-100 666.5336602184143;1659 666.5336602184143" dur="333.3333333333333s" repeatCount="indefinite" begin="-170.83347483189914s"></animateTransform>
        <path d="M84.717,33.597c0.791-2.503,1.186-5.138,1.186-7.773C85.903,11.594,74.308,0,60.079,0 c-9.881,0-18.445,5.534-22.793,13.702c-1.581-0.527-3.426-0.791-5.138-0.791c-9.486,0-17.128,7.642-17.128,17.128 c0,1.186,0.132,2.372,0.395,3.426C6.719,34.783,0,42.424,0,51.515C0,61.66,8.169,69.829,18.314,69.829h63.373 C91.831,69.829,100,61.66,100,51.515C99.868,42.556,93.281,35.046,84.717,33.597z" fill="#3b86ce" transform="scale(0.6492500000000001)"></path>
    </g><g transform="translate(-100 183.90810361123442) rotate(0)">
        <animateTransform attributeName="transform" type="translate" keyTimes="0;1" values="-100 183.90810361123442;1659 183.90810361123442" dur="333.3333333333333s" repeatCount="indefinite" begin="-82.1437027057761s"></animateTransform>
        <path d="M84.717,33.597c0.791-2.503,1.186-5.138,1.186-7.773C85.903,11.594,74.308,0,60.079,0 c-9.881,0-18.445,5.534-22.793,13.702c-1.581-0.527-3.426-0.791-5.138-0.791c-9.486,0-17.128,7.642-17.128,17.128 c0,1.186,0.132,2.372,0.395,3.426C6.719,34.783,0,42.424,0,51.515C0,61.66,8.169,69.829,18.314,69.829h63.373 C91.831,69.829,100,61.66,100,51.515C99.868,42.556,93.281,35.046,84.717,33.597z" fill="#3b86ce" transform="scale(0.6492500000000001)"></path>
    </g><g transform="translate(-100 362.1673212316437) rotate(0)">
        <animateTransform attributeName="transform" type="translate" keyTimes="0;1" values="-100 362.1673212316437;1659 362.1673212316437" dur="333.3333333333333s" repeatCount="indefinite" begin="-206.35908358545473s"></animateTransform>
        <path d="M84.717,33.597c0.791-2.503,1.186-5.138,1.186-7.773C85.903,11.594,74.308,0,60.079,0 c-9.881,0-18.445,5.534-22.793,13.702c-1.581-0.527-3.426-0.791-5.138-0.791c-9.486,0-17.128,7.642-17.128,17.128 c0,1.186,0.132,2.372,0.395,3.426C6.719,34.783,0,42.424,0,51.515C0,61.66,8.169,69.829,18.314,69.829h63.373 C91.831,69.829,100,61.66,100,51.515C99.868,42.556,93.281,35.046,84.717,33.597z" fill="#3b86ce" transform="scale(0.6492500000000001)"></path>
    </g><g transform="translate(-100 715.459723080709) rotate(0)">
        <animateTransform attributeName="transform" type="translate" keyTimes="0;1" values="-100 715.459723080709;1659 715.459723080709" dur="333.3333333333333s" repeatCount="indefinite" begin="-663.2748418972947s"></animateTransform>
        <path d="M84.717,33.597c0.791-2.503,1.186-5.138,1.186-7.773C85.903,11.594,74.308,0,60.079,0 c-9.881,0-18.445,5.534-22.793,13.702c-1.581-0.527-3.426-0.791-5.138-0.791c-9.486,0-17.128,7.642-17.128,17.128 c0,1.186,0.132,2.372,0.395,3.426C6.719,34.783,0,42.424,0,51.515C0,61.66,8.169,69.829,18.314,69.829h63.373 C91.831,69.829,100,61.66,100,51.515C99.868,42.556,93.281,35.046,84.717,33.597z" fill="#3b86ce" transform="scale(0.6492500000000001)"></path>
    </g><g transform="translate(-100 273.19346647316394) rotate(0)">
        <animateTransform attributeName="transform" type="translate" keyTimes="0;1" values="-100 273.19346647316394;1659 273.19346647316394" dur="333.3333333333333s" repeatCount="indefinite" begin="-35.76686937578422s"></animateTransform>
        <path d="M84.717,33.597c0.791-2.503,1.186-5.138,1.186-7.773C85.903,11.594,74.308,0,60.079,0 c-9.881,0-18.445,5.534-22.793,13.702c-1.581-0.527-3.426-0.791-5.138-0.791c-9.486,0-17.128,7.642-17.128,17.128 c0,1.186,0.132,2.372,0.395,3.426C6.719,34.783,0,42.424,0,51.515C0,61.66,8.169,69.829,18.314,69.829h63.373 C91.831,69.829,100,61.66,100,51.515C99.868,42.556,93.281,35.046,84.717,33.597z" fill="#3b86ce" transform="scale(0.6492500000000001)"></path>
    </g><g transform="translate(-100 132.95634534037472) rotate(0)">
        <animateTransform attributeName="transform" type="translate" keyTimes="0;1" values="-100 132.95634534037472;1659 132.95634534037472" dur="333.3333333333333s" repeatCount="indefinite" begin="-854.7260622007085s"></animateTransform>
        <path d="M84.717,33.597c0.791-2.503,1.186-5.138,1.186-7.773C85.903,11.594,74.308,0,60.079,0 c-9.881,0-18.445,5.534-22.793,13.702c-1.581-0.527-3.426-0.791-5.138-0.791c-9.486,0-17.128,7.642-17.128,17.128 c0,1.186,0.132,2.372,0.395,3.426C6.719,34.783,0,42.424,0,51.515C0,61.66,8.169,69.829,18.314,69.829h63.373 C91.831,69.829,100,61.66,100,51.515C99.868,42.556,93.281,35.046,84.717,33.597z" fill="#3b86ce" transform="scale(0.6492500000000001)"></path>
    </g><g transform="translate(-100 110.32077479852236) rotate(0)">
        <animateTransform attributeName="transform" type="translate" keyTimes="0;1" values="-100 110.32077479852236;1659 110.32077479852236" dur="333.3333333333333s" repeatCount="indefinite" begin="-800.1754539026582s"></animateTransform>
        <path d="M84.717,33.597c0.791-2.503,1.186-5.138,1.186-7.773C85.903,11.594,74.308,0,60.079,0 c-9.881,0-18.445,5.534-22.793,13.702c-1.581-0.527-3.426-0.791-5.138-0.791c-9.486,0-17.128,7.642-17.128,17.128 c0,1.186,0.132,2.372,0.395,3.426C6.719,34.783,0,42.424,0,51.515C0,61.66,8.169,69.829,18.314,69.829h63.373 C91.831,69.829,100,61.66,100,51.515C99.868,42.556,93.281,35.046,84.717,33.597z" fill="#3b86ce" transform="scale(0.6492500000000001)"></path>
    </g><g transform="translate(-100 366.63316237652725) rotate(0)">
        <animateTransform attributeName="transform" type="translate" keyTimes="0;1" values="-100 366.63316237652725;1659 366.63316237652725" dur="333.3333333333333s" repeatCount="indefinite" begin="-506.09824138051664s"></animateTransform>
        <path d="M84.717,33.597c0.791-2.503,1.186-5.138,1.186-7.773C85.903,11.594,74.308,0,60.079,0 c-9.881,0-18.445,5.534-22.793,13.702c-1.581-0.527-3.426-0.791-5.138-0.791c-9.486,0-17.128,7.642-17.128,17.128 c0,1.186,0.132,2.372,0.395,3.426C6.719,34.783,0,42.424,0,51.515C0,61.66,8.169,69.829,18.314,69.829h63.373 C91.831,69.829,100,61.66,100,51.515C99.868,42.556,93.281,35.046,84.717,33.597z" fill="#3b86ce" transform="scale(0.6492500000000001)"></path>
    </g><g transform="translate(-100 183.62378454848132) rotate(0)">
        <animateTransform attributeName="transform" type="translate" keyTimes="0;1" values="-100 183.62378454848132;1659 183.62378454848132" dur="250s" repeatCount="indefinite" begin="-996.2074991014167s"></animateTransform>
        <path d="M84.717,33.597c0.791-2.503,1.186-5.138,1.186-7.773C85.903,11.594,74.308,0,60.079,0 c-9.881,0-18.445,5.534-22.793,13.702c-1.581-0.527-3.426-0.791-5.138-0.791c-9.486,0-17.128,7.642-17.128,17.128 c0,1.186,0.132,2.372,0.395,3.426C6.719,34.783,0,42.424,0,51.515C0,61.66,8.169,69.829,18.314,69.829h63.373 C91.831,69.829,100,61.66,100,51.515C99.868,42.556,93.281,35.046,84.717,33.597z" fill="#43b7f6" transform="scale(0.7000000000000001)"></path>
    </g><g transform="translate(-100 203.42474305624015) rotate(0)">
        <animateTransform attributeName="transform" type="translate" keyTimes="0;1" values="-100 203.42474305624015;1659 203.42474305624015" dur="250s" repeatCount="indefinite" begin="-344.70658976502256s"></animateTransform>
        <path d="M84.717,33.597c0.791-2.503,1.186-5.138,1.186-7.773C85.903,11.594,74.308,0,60.079,0 c-9.881,0-18.445,5.534-22.793,13.702c-1.581-0.527-3.426-0.791-5.138-0.791c-9.486,0-17.128,7.642-17.128,17.128 c0,1.186,0.132,2.372,0.395,3.426C6.719,34.783,0,42.424,0,51.515C0,61.66,8.169,69.829,18.314,69.829h63.373 C91.831,69.829,100,61.66,100,51.515C99.868,42.556,93.281,35.046,84.717,33.597z" fill="#43b7f6" transform="scale(0.7000000000000001)"></path>
    </g><g transform="translate(-100 740.8721957982652) rotate(0)">
        <animateTransform attributeName="transform" type="translate" keyTimes="0;1" values="-100 740.8721957982652;1659 740.8721957982652" dur="250s" repeatCount="indefinite" begin="-346.9570344307542s"></animateTransform>
        <path d="M84.717,33.597c0.791-2.503,1.186-5.138,1.186-7.773C85.903,11.594,74.308,0,60.079,0 c-9.881,0-18.445,5.534-22.793,13.702c-1.581-0.527-3.426-0.791-5.138-0.791c-9.486,0-17.128,7.642-17.128,17.128 c0,1.186,0.132,2.372,0.395,3.426C6.719,34.783,0,42.424,0,51.515C0,61.66,8.169,69.829,18.314,69.829h63.373 C91.831,69.829,100,61.66,100,51.515C99.868,42.556,93.281,35.046,84.717,33.597z" fill="#43b7f6" transform="scale(0.7000000000000001)"></path>
    </g><g transform="translate(-100 513.3672033362825) rotate(0)">
        <animateTransform attributeName="transform" type="translate" keyTimes="0;1" values="-100 513.3672033362825;1659 513.3672033362825" dur="250s" repeatCount="indefinite" begin="-188.31445288122683s"></animateTransform>
        <path d="M84.717,33.597c0.791-2.503,1.186-5.138,1.186-7.773C85.903,11.594,74.308,0,60.079,0 c-9.881,0-18.445,5.534-22.793,13.702c-1.581-0.527-3.426-0.791-5.138-0.791c-9.486,0-17.128,7.642-17.128,17.128 c0,1.186,0.132,2.372,0.395,3.426C6.719,34.783,0,42.424,0,51.515C0,61.66,8.169,69.829,18.314,69.829h63.373 C91.831,69.829,100,61.66,100,51.515C99.868,42.556,93.281,35.046,84.717,33.597z" fill="#43b7f6" transform="scale(0.7000000000000001)"></path>
    </g><g transform="translate(-100 386.53137184604054) rotate(0)">
        <animateTransform attributeName="transform" type="translate" keyTimes="0;1" values="-100 386.53137184604054;1659 386.53137184604054" dur="250s" repeatCount="indefinite" begin="-900.9592168912175s"></animateTransform>
        <path d="M84.717,33.597c0.791-2.503,1.186-5.138,1.186-7.773C85.903,11.594,74.308,0,60.079,0 c-9.881,0-18.445,5.534-22.793,13.702c-1.581-0.527-3.426-0.791-5.138-0.791c-9.486,0-17.128,7.642-17.128,17.128 c0,1.186,0.132,2.372,0.395,3.426C6.719,34.783,0,42.424,0,51.515C0,61.66,8.169,69.829,18.314,69.829h63.373 C91.831,69.829,100,61.66,100,51.515C99.868,42.556,93.281,35.046,84.717,33.597z" fill="#43b7f6" transform="scale(0.7000000000000001)"></path>
    </g><g transform="translate(-100 363.84145942478006) rotate(0)">
        <animateTransform attributeName="transform" type="translate" keyTimes="0;1" values="-100 363.84145942478006;1659 363.84145942478006" dur="250s" repeatCount="indefinite" begin="-737.6910779320951s"></animateTransform>
        <path d="M84.717,33.597c0.791-2.503,1.186-5.138,1.186-7.773C85.903,11.594,74.308,0,60.079,0 c-9.881,0-18.445,5.534-22.793,13.702c-1.581-0.527-3.426-0.791-5.138-0.791c-9.486,0-17.128,7.642-17.128,17.128 c0,1.186,0.132,2.372,0.395,3.426C6.719,34.783,0,42.424,0,51.515C0,61.66,8.169,69.829,18.314,69.829h63.373 C91.831,69.829,100,61.66,100,51.515C99.868,42.556,93.281,35.046,84.717,33.597z" fill="#43b7f6" transform="scale(0.7000000000000001)"></path>
    </g><g transform="translate(-100 107.48331743436796) rotate(0)">
        <animateTransform attributeName="transform" type="translate" keyTimes="0;1" values="-100 107.48331743436796;1659 107.48331743436796" dur="250s" repeatCount="indefinite" begin="-927.0417081736095s"></animateTransform>
        <path d="M84.717,33.597c0.791-2.503,1.186-5.138,1.186-7.773C85.903,11.594,74.308,0,60.079,0 c-9.881,0-18.445,5.534-22.793,13.702c-1.581-0.527-3.426-0.791-5.138-0.791c-9.486,0-17.128,7.642-17.128,17.128 c0,1.186,0.132,2.372,0.395,3.426C6.719,34.783,0,42.424,0,51.515C0,61.66,8.169,69.829,18.314,69.829h63.373 C91.831,69.829,100,61.66,100,51.515C99.868,42.556,93.281,35.046,84.717,33.597z" fill="#43b7f6" transform="scale(0.7000000000000001)"></path>
    </g><g transform="translate(-100 374.7401801164539) rotate(0)">
        <animateTransform attributeName="transform" type="translate" keyTimes="0;1" values="-100 374.7401801164539;1659 374.7401801164539" dur="250s" repeatCount="indefinite" begin="-979.5120388633231s"></animateTransform>
        <path d="M84.717,33.597c0.791-2.503,1.186-5.138,1.186-7.773C85.903,11.594,74.308,0,60.079,0 c-9.881,0-18.445,5.534-22.793,13.702c-1.581-0.527-3.426-0.791-5.138-0.791c-9.486,0-17.128,7.642-17.128,17.128 c0,1.186,0.132,2.372,0.395,3.426C6.719,34.783,0,42.424,0,51.515C0,61.66,8.169,69.829,18.314,69.829h63.373 C91.831,69.829,100,61.66,100,51.515C99.868,42.556,93.281,35.046,84.717,33.597z" fill="#43b7f6" transform="scale(0.7000000000000001)"></path>
    </g><g transform="translate(-100 494.785074874095) rotate(0)">
        <animateTransform attributeName="transform" type="translate" keyTimes="0;1" values="-100 494.785074874095;1659 494.785074874095" dur="250s" repeatCount="indefinite" begin="-686.0672040524851s"></animateTransform>
        <path d="M84.717,33.597c0.791-2.503,1.186-5.138,1.186-7.773C85.903,11.594,74.308,0,60.079,0 c-9.881,0-18.445,5.534-22.793,13.702c-1.581-0.527-3.426-0.791-5.138-0.791c-9.486,0-17.128,7.642-17.128,17.128 c0,1.186,0.132,2.372,0.395,3.426C6.719,34.783,0,42.424,0,51.515C0,61.66,8.169,69.829,18.314,69.829h63.373 C91.831,69.829,100,61.66,100,51.515C99.868,42.556,93.281,35.046,84.717,33.597z" fill="#43b7f6" transform="scale(0.7000000000000001)"></path>
    </g><g transform="translate(-100 411.56902283172496) rotate(0)">
        <animateTransform attributeName="transform" type="translate" keyTimes="0;1" values="-100 411.56902283172496;1659 411.56902283172496" dur="250s" repeatCount="indefinite" begin="-196.51957177511625s"></animateTransform>
        <path d="M84.717,33.597c0.791-2.503,1.186-5.138,1.186-7.773C85.903,11.594,74.308,0,60.079,0 c-9.881,0-18.445,5.534-22.793,13.702c-1.581-0.527-3.426-0.791-5.138-0.791c-9.486,0-17.128,7.642-17.128,17.128 c0,1.186,0.132,2.372,0.395,3.426C6.719,34.783,0,42.424,0,51.515C0,61.66,8.169,69.829,18.314,69.829h63.373 C91.831,69.829,100,61.66,100,51.515C99.868,42.556,93.281,35.046,84.717,33.597z" fill="#43b7f6" transform="scale(0.7000000000000001)"></path>
    </g><g transform="translate(-100 491.7525057319441) rotate(0)">
        <animateTransform attributeName="transform" type="translate" keyTimes="0;1" values="-100 491.7525057319441;1659 491.7525057319441" dur="250s" repeatCount="indefinite" begin="-869.2321404115122s"></animateTransform>
        <path d="M84.717,33.597c0.791-2.503,1.186-5.138,1.186-7.773C85.903,11.594,74.308,0,60.079,0 c-9.881,0-18.445,5.534-22.793,13.702c-1.581-0.527-3.426-0.791-5.138-0.791c-9.486,0-17.128,7.642-17.128,17.128 c0,1.186,0.132,2.372,0.395,3.426C6.719,34.783,0,42.424,0,51.515C0,61.66,8.169,69.829,18.314,69.829h63.373 C91.831,69.829,100,61.66,100,51.515C99.868,42.556,93.281,35.046,84.717,33.597z" fill="#43b7f6" transform="scale(0.7000000000000001)"></path>
    </g><g transform="translate(-100 309.9231811523999) rotate(0)">
        <animateTransform attributeName="transform" type="translate" keyTimes="0;1" values="-100 309.9231811523999;1659 309.9231811523999" dur="250s" repeatCount="indefinite" begin="-499.3398776037636s"></animateTransform>
        <path d="M84.717,33.597c0.791-2.503,1.186-5.138,1.186-7.773C85.903,11.594,74.308,0,60.079,0 c-9.881,0-18.445,5.534-22.793,13.702c-1.581-0.527-3.426-0.791-5.138-0.791c-9.486,0-17.128,7.642-17.128,17.128 c0,1.186,0.132,2.372,0.395,3.426C6.719,34.783,0,42.424,0,51.515C0,61.66,8.169,69.829,18.314,69.829h63.373 C91.831,69.829,100,61.66,100,51.515C99.868,42.556,93.281,35.046,84.717,33.597z" fill="#43b7f6" transform="scale(0.7000000000000001)"></path>
    </g></g>
</svg>